#!OML:ASF F:\VICON\USERDATA\INSTALL\Justin_Nancy\Justin_Nancy.ASF
:FULLY-SPECIFIED
:DEGREES
221
root 0.3449 17.2116 23.3479 -2.17796 2.4081 0.497574
lowerback 3.32247 0.238872 -0.212932
upperback 0.0381034 0.342658 1.70463
thorax -1.8352 0.180241 1.85235
lowerneck -15.9027 -4.53423 -11.3368
upperneck 20.8054 -5.14553 7.53581
head 9.71247 -2.46841 3.84397
rclavicle -6.73383e-015 1.82882e-014
rhumerus -34.1553 -12.9365 -75.6197
rradius 44.9948
rwrist -2.11955
rhand -12.9084 14.6806
rfingers 7.12502
rthumb 13.1815 -14.8827
lclavicle -6.73383e-015 1.82882e-014
lhumerus -35.3849 12.114 83.8197
lradius 28.7361
lwrist -2.44698
lhand -21.6079 20.8589
lfingers 7.12502
lthumb 4.78739 50.7848
rfemur -8.60786 5.78893 24.1511
rtibia 34.0488
rfoot -17.543 -12.3894
rtoes 1.64159
lfemur -12.5662 -4.40807 -22.5145
ltibia 35.2261
lfoot -16.5719 -1.67
ltoes 2.41648
222
root 0.348198 17.2127 23.3644 -2.10019 2.45767 0.548362
lowerback 3.24278 0.230994 -0.294157
upperback 0.057042 0.328268 1.70428
thorax -1.77105 0.173344 1.89853
lowerneck -15.6893 -4.49016 -11.4002
upperneck 20.4137 -5.08901 7.60288
head 9.53257 -2.44017 3.88125
rclavicle -1.11195e-015 -1.03368e-014
rhumerus -34.0452 -13.5555 -75.4029
rradius 43.5695
rwrist -2.26782
rhand -12.1535 13.1377
rfingers 7.12502
rthumb 13.9091 -16.3771
lclavicle -1.11195e-015 -1.03368e-014
lhumerus -35.0102 11.9759 83.9273
lradius 28.9652
lwrist -2.01925
lhand -22.071 19.1652
lfingers 7.12502
lthumb 4.34021 49.1007
rfemur -8.58967 5.64388 24.0578
rtibia 33.9983
rfoot -17.7084 -12.3199
rtoes 1.74846
lfemur -12.5398 -4.37831 -22.5844
ltibia 35.2
lfoot -16.6855 -1.71145
ltoes 2.6324
223
root 0.34528 17.2142 23.3795 -2.02894 2.52835 0.62849
lowerback 3.17644 0.213385 -0.467617
upperback 0.130821 0.297416 1.72151
thorax -1.65805 0.158356 2.01538
lowerneck -15.7696 -4.48818 -11.4438
upperneck 20.1251 -5.04902 7.59319
head 9.44352 -2.42125 3.8846
rclavicle -5.57218e-015 -1.03368e-014
rhumerus -33.7097 -14.3093 -75.2079
rradius 41.9127
rwrist -1.88673
rhand -11.8537 11.8175
rfingers 7.12502
rthumb 14.198 -17.6772
lclavicle -5.57218e-015 -1.03368e-014
lhumerus -34.4526 12.2759 83.8287
lradius 29.0719
lwrist -3.00433
lhand -20.9474 19.9466
lfingers 7.12502
lthumb 5.42517 49.8572
rfemur -8.57126 5.55296 23.9754
rtibia 33.9211
rfoot -17.7072 -12.3142
rtoes 1.52005
lfemur -12.5666 -4.44673 -22.6681
ltibia 35.2152
lfoot -16.6874 -1.71319
ltoes 3.18131
224
root 0.33753 17.2143 23.3914 -2.04596 2.44114 0.438626
lowerback 3.26804 0.226207 -0.412777
upperback 0.27233 0.316506 1.80046
thorax -1.56511 0.166378 2.06476
lowerneck -16.1102 -4.5121 -11.3234
upperneck 19.8543 -5.03654 7.48871
head 9.4047 -2.4076 3.82126
rclavicle 2.38697e-015 -1.74931e-014
rhumerus -33.3656 -15.2202 -75.0353
rradius 40.1925
rwrist -1.26845
rhand -11.8383 11.2859
rfingers 7.12502
rthumb 14.2128 -18.2078
lclavicle 2.38697e-015 -1.74931e-014
lhumerus -33.8335 12.2085 83.8808
lradius 29.3846
lwrist -3.44782
lhand -19.1327 21.3746
lfingers 7.12502
lthumb 7.17709 51.2329
rfemur -8.50107 5.80663 24.2663
rtibia 33.8838
rfoot -17.6376 -12.5468
rtoes 1.27348
lfemur -12.5464 -4.47787 -22.4274
ltibia 35.2224
lfoot -16.7201 -1.6921
ltoes 3.30472
225
root 0.331771 17.2142 23.3948 -1.97011 2.32863 0.357482
lowerback 3.41754 0.246404 -0.427416
upperback 0.312781 0.343937 1.84517
thorax -1.60883 0.180348 2.1174
lowerneck -16.3215 -4.47881 -11.3352
upperneck 19.6716 -4.96452 7.53657
head 9.37388 -2.36362 3.84513
rclavicle 2.64632e-015 -1.74931e-014
rhumerus -33.2461 -16.018 -74.8296
rradius 38.6225
rwrist -0.79669
rhand -12.1375 11.546
rfingers 7.12502
rthumb 13.9245 -17.9677
lclavicle 2.64632e-015 -1.74931e-014
lhumerus -33.488 11.7263 84.1009
lradius 29.9778
lwrist -3.16452
lhand -18.7583 20.4946
lfingers 7.12502
lthumb 7.53849 50.3403
rfemur -8.57671 6.07496 24.4135
rtibia 33.8821
rfoot -17.585 -12.7884
rtoes 1.40788
lfemur -12.6417 -4.56772 -22.3088
ltibia 35.2143
lfoot -16.6462 -1.53421
ltoes 2.81213
226
root 0.333909 17.2142 23.3969 -1.78235 2.45293 0.587137
lowerback 3.54175 0.204268 -0.61577
upperback 0.242924 0.280501 1.77028
thorax -1.7481 0.151112 2.14912
lowerneck -16.489 -4.4351 -11.3683
upperneck 19.6008 -4.88785 7.60698
head 9.37451 -2.3187 3.88361
rclavicle -1.15854e-015 7.95139e-016
rhumerus -33.3365 -16.7324 -74.6003
rradius 37.1589
rwrist -0.528456
rhand -12.5121 11.5785
rfingers 7.12502
rthumb 13.5634 -17.9597
lclavicle -1.15854e-015 7.95139e-016
lhumerus -33.4463 10.7424 84.4646
lradius 31.136
lwrist -2.51802
lhand -19.2769 19.9637
lfingers 7.12502
lthumb 7.03784 49.8267
rfemur -8.74804 5.93971 24.1146
rtibia 33.9018
rfoot -17.6755 -12.7126
rtoes 1.71792
lfemur -12.8146 -4.68416 -22.5679
ltibia 35.2135
lfoot -16.7036 -1.46746
ltoes 2.55056
227
root 0.336042 17.2143 23.3995 -1.60001 2.48942 0.810909
lowerback 3.6554 0.232365 -0.778492
upperback 0.142674 0.310853 1.67824
thorax -1.91637 0.169147 2.14417
lowerneck -16.6279 -4.47224 -11.2639
upperneck 19.606 -4.91603 7.45409
head 9.39825 -2.33759 3.8069
rclavicle 4.94787e-015 1.03368e-014
rhumerus -33.4794 -17.6448 -74.2818
rradius 35.6539
rwrist -0.143693
rhand -12.6951 10.6731
rfingers 7.12502
rthumb 13.3871 -18.8768
lclavicle 4.94787e-015 1.03368e-014
lhumerus -33.3203 9.83501 84.7651
lradius 32.0623
lwrist -2.08314
lhand -19.2574 20.6725
lfingers 7.12502
lthumb 7.05664 50.5349
rfemur -8.95256 5.82758 23.8282
rtibia 33.9655
rfoot -17.7695 -12.5673
rtoes 2.26113
lfemur -12.9614 -4.83888 -22.8257
ltibia 35.1804
lfoot -16.6138 -1.33761
ltoes 2.41282
228
root 0.32941 17.2129 23.4032 -1.54386 2.30683 0.765858
lowerback 3.7891 0.293373 -0.818872
upperback 0.134693 0.390714 1.68352
thorax -2.00331 0.210131 2.16772
lowerneck -16.8059 -4.5478 -11.24
upperneck 19.5115 -5.00492 7.46197
head 9.40701 -2.37183 3.79018
rclavicle -1.6555e-015 -5.56597e-015
rhumerus -33.4915 -18.7499 -73.9723
rradius 34.2308
rwrist 1.01471
rhand -12.837 9.59174
rfingers 7.12502
rthumb 13.2503 -19.9671
lclavicle -1.6555e-015 -5.56597e-015
lhumerus -33.1344 9.47196 84.7347
lradius 32.518
lwrist -2.22154
lhand -18.7157 20.3432
lfingers 7.12502
lthumb 7.57953 50.1874
rfemur -9.05685 6.08869 23.9333
rtibia 34.0328
rfoot -17.7797 -12.6581
rtoes 2.1784
lfemur -12.9995 -4.81688 -22.7396
ltibia 35.1538
lfoot -16.5815 -1.18336
ltoes 2.41803
229
root 0.324987 17.216 23.4112 -1.45383 2.20919 0.794398
lowerback 3.88859 0.307884 -0.915249
upperback 0.114504 0.405567 1.66497
thorax -2.08105 0.219138 2.20172
lowerneck -16.7747 -4.57986 -11.288
upperneck 19.201 -5.05379 7.58276
head 9.3029 -2.38283 3.82932
rclavicle -3.29548e-015 -9.54166e-015
rhumerus -33.5304 -19.7537 -73.6731
rradius 32.9378
rwrist 2.47787
rhand -12.9913 9.25829
rfingers 7.12502
rthumb 13.1016 -20.3102
lclavicle -3.29548e-015 -9.54166e-015
lhumerus -33.0294 8.98317 84.7126
lradius 33.0605
lwrist -2.10516
lhand -18.4822 19.7161
lfingers 7.12502
lthumb 7.80496 49.552
rfemur -9.15768 6.1641 23.9309
rtibia 34.0569
rfoot -17.829 -12.6958
rtoes 2.52943
lfemur -13.061 -4.81008 -22.7498
ltibia 35.1588
lfoot -16.6077 -1.10227
ltoes 2.20362
230
root 0.322292 17.2177 23.4158 -1.35765 2.1055 0.833326
lowerback 4.05717 0.334665 -0.977264
upperback 0.0539811 0.438114 1.63812
thorax -2.23955 0.237635 2.20649
lowerneck -16.6889 -4.52813 -11.2926
upperneck 19.0593 -4.99759 7.64417
head 9.23372 -2.3508 3.85807
rclavicle 5.14977e-015 -3.18055e-015
rhumerus -33.6609 -20.8691 -73.2909
rradius 31.6714
rwrist 4.03126
rhand -13.199 9.38
rfingers 7.12502
rthumb 12.9013 -20.2012
lclavicle 5.14977e-015 -3.18055e-015
lhumerus -32.9682 7.87524 84.9581
lradius 33.8837
lwrist -1.33097
lhand -18.7145 20.9115
lfingers 7.12502
lthumb 7.58077 50.7556
rfemur -9.23896 6.1983 23.8896
rtibia 34.0204
rfoot -17.8486 -12.5988
rtoes 2.97072
lfemur -13.1591 -4.87455 -22.7971
ltibia 35.2059
lfoot -16.6325 -0.842983
ltoes 1.7121
231
root 0.323378 17.2164 23.4272 -1.28602 2.08925 0.698404
lowerback 4.04417 0.324771 -0.790815
upperback 0.0812525 0.433557 1.64545
thorax -2.20264 0.232914 2.10944
lowerneck -16.7132 -4.50187 -11.2799
upperneck 18.9249 -4.96756 7.69926
head 9.18937 -2.3282 3.87716
rclavicle -9.89575e-015 -1.82882e-014
rhumerus -33.6799 -21.9454 -72.9639
rradius 30.4059
rwrist 5.43145
rhand -13.6976 9.57829
rfingers 7.12502
rthumb 12.4206 -20.0327
lclavicle -9.89575e-015 -1.82882e-014
lhumerus -32.6948 7.03016 85.1378
lradius 34.4158
lwrist -0.881547
lhand -18.4474 23.4539
lfingers 7.12502
lthumb 7.83858 53.2886
rfemur -9.21666 6.0788 24.0128
rtibia 33.9221
rfoot -17.8832 -12.4804
rtoes 3.00512
lfemur -13.2138 -4.99831 -22.6773
ltibia 35.2855
lfoot -16.7143 -0.621215
ltoes 1.14127
232
root 0.323873 17.2151 23.4419 -1.20003 2.07115 0.594824
lowerback 4.01927 0.29493 -0.6779
upperback 0.0812157 0.399307 1.65963
thorax -2.18655 0.214589 2.06262
lowerneck -16.624 -4.47189 -11.0489
upperneck 18.6374 -4.93067 7.46374
head 9.05762 -2.31815 3.75704
rclavicle -1.92573e-015 -3.18055e-015
rhumerus -33.8202 -23.1076 -72.5408
rradius 29.247
rwrist 7.19629
rhand -14.1004 10.0239
rfingers 7.12502
rthumb 12.0323 -19.6102
lclavicle -1.92573e-015 -3.18055e-015
lhumerus -32.467 6.6595 85.145
lradius 34.8364
lwrist -0.85603
lhand -17.9666 25.0732
lfingers 7.12502
lthumb 8.30254 54.8901
rfemur -9.19676 5.96381 24.1079
rtibia 33.7984
rfoot -17.8296 -12.3521
rtoes 2.7797
lfemur -13.2749 -5.09039 -22.5749
ltibia 35.3741
lfoot -16.8286 -0.490422
ltoes 1.07301
233
root 0.323038 17.218 23.4484 -1.09103 1.98001 0.261979
lowerback 4.12595 0.280058 -0.361971
upperback -0.00140733 0.398096 1.759
thorax -2.32986 0.212453 1.98705
lowerneck -16.6552 -4.4156 -10.9631
upperneck 18.6135 -4.84892 7.36776
head 9.04187 -2.28298 3.71957
rclavicle -4.65902e-015 -4.77083e-015
rhumerus -34.1928 -24.0431 -72.0718
rradius 28.3066
rwrist 8.84803
rhand -14.4857 10.8083
rfingers 7.12502
rthumb 11.6608 -18.8472
lclavicle -4.65902e-015 -4.77083e-015
lhumerus -32.3594 6.38225 85.1274
lradius 35.2725
lwrist -0.869516
lhand -18.1469 23.6392
lfingers 7.12502
lthumb 8.1286 53.4629
rfemur -9.268 5.96657 24.4766
rtibia 33.6758
rfoot -17.7535 -12.3327
rtoes 2.38951
lfemur -13.4147 -5.1105 -22.187
ltibia 35.464
lfoot -16.8782 -0.409008
ltoes 1.13297
234
root 0.321281 17.2173 23.4586 -1.0371 1.80942 0.262565
lowerback 4.15107 0.287066 -0.4346
upperback 0.0391277 0.40461 1.80394
thorax -2.30339 0.216382 2.07377
lowerneck -16.816 -4.32644 -11.0719
upperneck 18.6242 -4.70256 7.47766
head 9.06526 -2.20765 3.79499
rclavicle 4.63417e-015 5.56597e-015
rhumerus -34.3288 -24.6026 -71.8015
rradius 27.4799
rwrist 9.90319
rhand -14.6783 11.2505
rfingers 7.12502
rthumb 11.475 -18.4155
lclavicle 4.63417e-015 5.56597e-015
lhumerus -32.0878 6.03827 85.1931
lradius 35.6843
lwrist -0.655685
lhand -18.3219 22.6077
lfingers 7.12502
lthumb 7.9597 52.4378
rfemur -9.22775 6.13573 24.4868
rtibia 33.5652
rfoot -17.7736 -12.3441
rtoes 2.47426
lfemur -13.4658 -5.07526 -22.1772
ltibia 35.5489
lfoot -16.8834 -0.321168
ltoes 1.73517
